<svg xmlns="http://www.w3.org/2000/svg" viewBox="0 0 512 512" role="img" aria-label="QuestShelf icon">
  <defs>
    <radialGradient id="bg" cx="50%" cy="42%" r="70%">
      <stop offset="0%" stop-color="#102331"/>
      <stop offset="72%" stop-color="#050b15"/>
      <stop offset="100%" stop-color="#02060d"/>
    </radialGradient>
    <linearGradient id="mint" x1="116" y1="128" x2="404" y2="405" gradientUnits="userSpaceOnUse">
      <stop stop-color="#67fff0"/>
      <stop offset="52%" stop-color="#22f3df"/>
      <stop offset="100%" stop-color="#08b9c9"/>
    </linearGradient>
    <filter id="glow" x="-30%" y="-30%" width="160%" height="160%">
      <feGaussianBlur stdDeviation="9" result="blur"/>
      <feColorMatrix in="blur" type="matrix" values="0 0 0 0 0.05 0 0 0 0 0.95 0 0 0 0 0.85 0 0 0 0.72 0"/>
      <feMerge>
        <feMergeNode/>
        <feMergeNode in="SourceGraphic"/>
      </feMerge>
    </filter>
  </defs>
  <rect width="512" height="512" rx="108" fill="url(#bg)"/>
  <rect x="28" y="28" width="456" height="456" rx="100" fill="none" stroke="#172334" stroke-width="8"/>
  <path d="M365 365l55 55" stroke="url(#mint)" stroke-width="48" stroke-linecap="round" filter="url(#glow)"/>
  <circle cx="252" cy="250" r="154" fill="none" stroke="url(#mint)" stroke-width="48" filter="url(#glow)"/>
  <path d="M149 324h207" stroke="#172334" stroke-width="22" stroke-linecap="round"/>
  <rect x="158" y="191" width="48" height="116" rx="12" fill="#1b2635" stroke="#5d7082" stroke-width="5"/>
  <rect x="232" y="184" width="58" height="123" rx="13" fill="#153438" stroke="url(#mint)" stroke-width="7" filter="url(#glow)"/>
  <rect x="319" y="191" width="48" height="116" rx="12" fill="#1b2635" stroke="#5d7082" stroke-width="5"/>
  <path d="M178 213h15M251 213h20M337 213h13" stroke="#22f3df" stroke-width="8" stroke-linecap="round" filter="url(#glow)"/>
  <path d="M247 296h28v49l-14-12-14 12z" fill="#22f3df" filter="url(#glow)"/>
</svg>
