<svg xmlns="http://www.w3.org/2000/svg" viewBox="0 0 1024 1024" role="img" aria-label="QuestShelf splash">
  <defs>
    <radialGradient id="bg" cx="50%" cy="38%" r="75%">
      <stop offset="0%" stop-color="#102331"/>
      <stop offset="68%" stop-color="#050a12"/>
      <stop offset="100%" stop-color="#02060d"/>
    </radialGradient>
    <linearGradient id="mint" x1="256" y1="240" x2="760" y2="776" gradientUnits="userSpaceOnUse">
      <stop stop-color="#67fff0"/>
      <stop offset="54%" stop-color="#22f3df"/>
      <stop offset="100%" stop-color="#08b9c9"/>
    </linearGradient>
    <filter id="glow" x="-30%" y="-30%" width="160%" height="160%">
      <feGaussianBlur stdDeviation="18" result="blur"/>
      <feColorMatrix in="blur" type="matrix" values="0 0 0 0 0.05 0 0 0 0 0.95 0 0 0 0 0.85 0 0 0 0.72 0"/>
      <feMerge>
        <feMergeNode/>
        <feMergeNode in="SourceGraphic"/>
      </feMerge>
    </filter>
  </defs>
  <rect width="1024" height="1024" fill="url(#bg)"/>
  <circle cx="512" cy="468" r="220" fill="#07111f" stroke="#172334" stroke-width="16"/>
  <path d="M655 635l90 90" stroke="url(#mint)" stroke-width="64" stroke-linecap="round" filter="url(#glow)"/>
  <circle cx="496" cy="480" r="180" fill="none" stroke="url(#mint)" stroke-width="56" filter="url(#glow)"/>
  <path d="M370 565h252" stroke="#172334" stroke-width="26" stroke-linecap="round"/>
  <rect x="386" y="410" width="58" height="132" rx="14" fill="#1b2635" stroke="#5d7082" stroke-width="6"/>
  <rect x="474" y="400" width="70" height="142" rx="16" fill="#153438" stroke="url(#mint)" stroke-width="8" filter="url(#glow)"/>
  <rect x="580" y="410" width="58" height="132" rx="14" fill="#1b2635" stroke="#5d7082" stroke-width="6"/>
  <path d="M410 436h18M498 436h24M602 436h16" stroke="#22f3df" stroke-width="10" stroke-linecap="round" filter="url(#glow)"/>
  <path d="M494 530h34v66l-17-14-17 14z" fill="#22f3df" filter="url(#glow)"/>
  <text x="512" y="825" fill="#e8fbff" font-family="Inter, Arial, sans-serif" font-size="72" font-weight="700" text-anchor="middle">QuestShelf</text>
  <text x="512" y="878" fill="#8aa1b5" font-family="Inter, Arial, sans-serif" font-size="28" font-weight="600" letter-spacing="6" text-anchor="middle">HANDHELD LIBRARY</text>
</svg>
